<?xml version="1.0" encoding="utf-8"?><svg xmlns="http://www.w3.org/2000/svg" xmlns:xlink="http://www.w3.org/1999/xlink"><symbol viewBox="0 0 24 24" id="arrow-down" xmlns="http://www.w3.org/2000/svg">
    <path fill-rule="evenodd" clip-rule="evenodd" d="M12.3977 15.6629C12.178 15.8826 11.8219 15.8826 11.6022 15.6629L5.86739 9.92804C5.64772 9.70837 5.64772 9.35227 5.86739 9.13259L6.13256 8.86739C6.35222 8.64772 6.70838 8.64772 6.92805 8.86739L12 13.9393L17.0719 8.86739C17.2916 8.64772 17.6477 8.64772 17.8674 8.86739L18.1326 9.13259C18.3522 9.35227 18.3522 9.70837 18.1326 9.92804L12.3977 15.6629Z"/>
</symbol><symbol viewBox="0 0 48 48" id="chart" xmlns="http://www.w3.org/2000/svg">
    <path d="M24 45.5002C12.14 45.5002 2.5 35.8602 2.5 24.0002C2.5 19.2802 4 14.8002 6.84 11.0402C7.34 10.3802 8.28 10.2602 8.94 10.7602C9.6 11.2602 9.74 12.2002 9.24 12.8602C6.8 16.0802 5.5 19.9402 5.5 24.0002C5.5 34.2002 13.8 42.5002 24 42.5002C34.2 42.5002 42.5 34.2002 42.5 24.0002C42.5 13.8002 34.2 5.50024 24 5.50024C23.18 5.50024 22.5 4.82024 22.5 4.00024C22.5 3.18024 23.18 2.50024 24 2.50024C35.86 2.50024 45.5 12.1402 45.5 24.0002C45.5 35.8602 35.86 45.5002 24 45.5002Z"/>
    <path d="M24 39.5002C15.46 39.5002 8.5 32.5402 8.5 24.0002C8.5 23.1802 9.18 22.5002 10 22.5002C10.82 22.5002 11.5 23.1802 11.5 24.0002C11.5 30.9002 17.1 36.5002 24 36.5002C30.9 36.5002 36.5 30.9002 36.5 24.0002C36.5 17.1002 30.9 11.5002 24 11.5002C23.18 11.5002 22.5 10.8202 22.5 10.0002C22.5 9.18024 23.18 8.50024 24 8.50024C32.54 8.50024 39.5 15.4602 39.5 24.0002C39.5 32.5402 32.54 39.5002 24 39.5002Z"/>
    <path d="M24 33.5002C23.18 33.5002 22.5 32.8202 22.5 32.0002C22.5 31.1802 23.18 30.5002 24 30.5002C27.58 30.5002 30.5 27.5802 30.5 24.0002C30.5 20.4202 27.58 17.5002 24 17.5002C23.18 17.5002 22.5 16.8202 22.5 16.0002C22.5 15.1802 23.18 14.5002 24 14.5002C29.24 14.5002 33.5 18.7602 33.5 24.0002C33.5 29.2402 29.24 33.5002 24 33.5002Z"/>
</symbol><symbol viewBox="0 0 48 48" id="emoji-happy" xmlns="http://www.w3.org/2000/svg">
    <path d="M30 45.5002H18C7.14 45.5002 2.5 40.8602 2.5 30.0002V18.0002C2.5 7.14024 7.14 2.50024 18 2.50024H30C40.86 2.50024 45.5 7.14024 45.5 18.0002V30.0002C45.5 40.8602 40.86 45.5002 30 45.5002ZM18 5.50024C8.78 5.50024 5.5 8.78024 5.5 18.0002V30.0002C5.5 39.2202 8.78 42.5002 18 42.5002H30C39.22 42.5002 42.5 39.2202 42.5 30.0002V18.0002C42.5 8.78024 39.22 5.50024 30 5.50024H18Z"/>
    <path d="M31 21.0002C28.52 21.0002 26.5 18.9802 26.5 16.5002C26.5 14.0202 28.52 12.0002 31 12.0002C33.48 12.0002 35.5 14.0202 35.5 16.5002C35.5 18.9802 33.48 21.0002 31 21.0002ZM31 15.0002C30.18 15.0002 29.5 15.6802 29.5 16.5002C29.5 17.3202 30.18 18.0002 31 18.0002C31.82 18.0002 32.5 17.3202 32.5 16.5002C32.5 15.6802 31.82 15.0002 31 15.0002Z"/>
    <path d="M17 21.0002C14.52 21.0002 12.5 18.9802 12.5 16.5002C12.5 14.0202 14.52 12.0002 17 12.0002C19.48 12.0002 21.5 14.0202 21.5 16.5002C21.5 18.9802 19.48 21.0002 17 21.0002ZM17 15.0002C16.18 15.0002 15.5 15.6802 15.5 16.5002C15.5 17.3202 16.18 18.0002 17 18.0002C17.82 18.0002 18.5 17.3202 18.5 16.5002C18.5 15.6802 17.82 15.0002 17 15.0002Z"/>
    <path d="M24 38.9003C18.2 38.9003 13.5 34.1803 13.5 28.4003C13.5 26.5803 14.98 25.1003 16.8 25.1003H31.2C33.02 25.1003 34.5 26.5803 34.5 28.4003C34.5 34.1803 29.8 38.9003 24 38.9003ZM16.8 28.1003C16.64 28.1003 16.5 28.2403 16.5 28.4003C16.5 32.5403 19.86 35.9003 24 35.9003C28.14 35.9003 31.5 32.5403 31.5 28.4003C31.5 28.2403 31.36 28.1003 31.2 28.1003H16.8V28.1003Z"/>
</symbol><symbol viewBox="0 0 24 24" id="facebook" xmlns="http://www.w3.org/2000/svg">
    <path d="M16.5 6H13.5C12.9477 6 12.5 6.44772 12.5 7V10H16.5C16.6137 9.99748 16.7216 10.0504 16.7892 10.1419C16.8568 10.2334 16.8758 10.352 16.84 10.46L16.1 12.66C16.0318 12.8619 15.8431 12.9984 15.63 13H12.5V20.5C12.5 20.7761 12.2761 21 12 21H9.5C9.22386 21 9 20.7761 9 20.5V13H7.5C7.22386 13 7 12.7761 7 12.5V10.5C7 10.2239 7.22386 10 7.5 10H9V7C9 4.79086 10.7909 3 13 3H16.5C16.7761 3 17 3.22386 17 3.5V5.5C17 5.77614 16.7761 6 16.5 6Z"/>
</symbol><symbol viewBox="0 0 48 48" id="heart-circle" xmlns="http://www.w3.org/2000/svg">
    <path d="M24 45.5002C12.14 45.5002 2.5 35.8602 2.5 24.0002C2.5 12.1402 12.14 2.50024 24 2.50024C35.86 2.50024 45.5 12.1402 45.5 24.0002C45.5 35.8602 35.86 45.5002 24 45.5002ZM24 5.50024C13.8 5.50024 5.5 13.8002 5.5 24.0002C5.5 34.2002 13.8 42.5002 24 42.5002C34.2 42.5002 42.5 34.2002 42.5 24.0002C42.5 13.8002 34.2 5.50024 24 5.50024Z"/>
    <path d="M23.9997 36.5002C23.5797 36.5002 23.1797 36.4403 22.8397 36.3203C18.5397 34.8603 11.7197 29.6203 11.7197 21.8203C11.7197 17.6603 15.0797 14.2803 19.2197 14.2803C21.0197 14.2803 22.6797 14.9003 24.0197 16.0203C25.3597 14.9003 27.0397 14.2803 28.7997 14.2803C32.9397 14.2803 36.2997 17.6603 36.2997 21.8203C36.2997 29.6003 29.4797 34.8403 25.1597 36.3203C24.8197 36.4403 24.3997 36.5002 23.9997 36.5002ZM19.1997 17.3002C16.7197 17.3002 14.6997 19.3403 14.6997 21.8403C14.6997 28.8203 21.4397 32.7002 23.7997 33.5002C23.8797 33.5202 24.0797 33.5202 24.1597 33.5002C26.5197 32.7002 33.2597 28.8203 33.2597 21.8403C33.2597 19.3403 31.2397 17.3002 28.7597 17.3002C27.3597 17.3002 26.0197 17.9802 25.1797 19.1202C24.6197 19.8802 23.3397 19.8802 22.7797 19.1202C21.9397 17.9602 20.6397 17.3002 19.1997 17.3002Z"/>
</symbol><symbol viewBox="0 0 24 24" id="instagram" xmlns="http://www.w3.org/2000/svg">
    <path fill-rule="evenodd" clip-rule="evenodd" d="M16 3H8C5.23858 3 3 5.23858 3 8V16C3 18.7614 5.23858 21 8 21H16C18.7614 21 21 18.7614 21 16V8C21 5.23858 18.7614 3 16 3ZM19.25 16C19.2445 17.7926 17.7926 19.2445 16 19.25H8C6.20735 19.2445 4.75549 17.7926 4.75 16V8C4.75549 6.20735 6.20735 4.75549 8 4.75H16C17.7926 4.75549 19.2445 6.20735 19.25 8V16ZM16.75 8.25C17.3023 8.25 17.75 7.80228 17.75 7.25C17.75 6.69772 17.3023 6.25 16.75 6.25C16.1977 6.25 15.75 6.69772 15.75 7.25C15.75 7.80228 16.1977 8.25 16.75 8.25ZM12 7.5C9.51472 7.5 7.5 9.51472 7.5 12C7.5 14.4853 9.51472 16.5 12 16.5C14.4853 16.5 16.5 14.4853 16.5 12C16.5027 10.8057 16.0294 9.65957 15.1849 8.81508C14.3404 7.97059 13.1943 7.49734 12 7.5ZM9.25 12C9.25 13.5188 10.4812 14.75 12 14.75C13.5188 14.75 14.75 13.5188 14.75 12C14.75 10.4812 13.5188 9.25 12 9.25C10.4812 9.25 9.25 10.4812 9.25 12Z"/>
</symbol><symbol viewBox="0 0 24 24" id="linkedIn" xmlns="http://www.w3.org/2000/svg">
    <path fill-rule="evenodd" clip-rule="evenodd" d="M5 3H19C20.1046 3 21 3.89543 21 5V19C21 20.1046 20.1046 21 19 21H5C3.89543 21 3 20.1046 3 19V5C3 3.89543 3.89543 3 5 3ZM8 18C8.27614 18 8.5 17.7761 8.5 17.5V10.5C8.5 10.2239 8.27614 10 8 10H6.5C6.22386 10 6 10.2239 6 10.5V17.5C6 17.7761 6.22386 18 6.5 18H8ZM7.25 9C6.42157 9 5.75 8.32843 5.75 7.5C5.75 6.67157 6.42157 6 7.25 6C8.07843 6 8.75 6.67157 8.75 7.5C8.75 8.32843 8.07843 9 7.25 9ZM17.5 18C17.7761 18 18 17.7761 18 17.5V12.9C18.0325 11.3108 16.8576 9.95452 15.28 9.76C14.177 9.65925 13.1083 10.1744 12.5 11.1V10.5C12.5 10.2239 12.2761 10 12 10H10.5C10.2239 10 10 10.2239 10 10.5V17.5C10 17.7761 10.2239 18 10.5 18H12C12.2761 18 12.5 17.7761 12.5 17.5V13.75C12.5 12.9216 13.1716 12.25 14 12.25C14.8284 12.25 15.5 12.9216 15.5 13.75V17.5C15.5 17.7761 15.7239 18 16 18H17.5Z"/>
</symbol><symbol viewBox="0 0 48 48" id="moon" xmlns="http://www.w3.org/2000/svg">
    <path d="M24.9199 45.5002C24.5799 45.5002 24.2399 45.5002 23.8999 45.4802C12.6999 44.9802 3.3399 35.9602 2.5599 24.9602C1.8799 15.5202 7.3399 6.70023 16.1399 3.00023C18.6399 1.96023 19.9599 2.76023 20.5199 3.34023C21.0799 3.90023 21.8599 5.20023 20.8199 7.58023C19.8999 9.70023 19.4399 11.9602 19.4599 14.2802C19.4999 23.1402 26.8599 30.6602 35.8399 31.0202C37.1399 31.0802 38.4199 30.9802 39.6599 30.7602C42.2999 30.2802 43.3999 31.3402 43.8199 32.0202C44.2399 32.7002 44.7199 34.1602 43.1199 36.3202C38.8799 42.1202 32.1399 45.5002 24.9199 45.5002ZM5.5399 24.7402C6.2199 34.2602 14.3399 42.0602 24.0199 42.4802C30.5999 42.8002 36.8399 39.8002 40.6799 34.5602C40.9799 34.1402 41.1199 33.8402 41.1799 33.6802C40.9999 33.6602 40.6799 33.6402 40.1799 33.7402C38.7199 34.0002 37.1999 34.1002 35.6999 34.0402C25.1399 33.6202 16.4999 24.7602 16.4399 14.3202C16.4399 11.5602 16.9799 8.90023 18.0799 6.40023C18.2799 5.96023 18.3199 5.66023 18.3399 5.50023C18.1599 5.50023 17.8399 5.54023 17.3199 5.76023C9.6999 8.96023 4.9799 16.6002 5.5399 24.7402Z"/>
</symbol><symbol viewBox="0 0 24 24" id="search-normal" xmlns="http://www.w3.org/2000/svg">
    <path d="M11.5 21.75C5.85 21.75 1.25 17.15 1.25 11.5C1.25 5.85 5.85 1.25 11.5 1.25C17.15 1.25 21.75 5.85 21.75 11.5C21.75 17.15 17.15 21.75 11.5 21.75ZM11.5 2.75C6.67 2.75 2.75 6.68 2.75 11.5C2.75 16.32 6.67 20.25 11.5 20.25C16.33 20.25 20.25 16.32 20.25 11.5C20.25 6.68 16.33 2.75 11.5 2.75Z"/>
    <path d="M21.9999 22.7499C21.8099 22.7499 21.6199 22.6799 21.4699 22.5299L19.4699 20.5299C19.1799 20.2399 19.1799 19.7599 19.4699 19.4699C19.7599 19.1799 20.2399 19.1799 20.5299 19.4699L22.5299 21.4699C22.8199 21.7599 22.8199 22.2399 22.5299 22.5299C22.3799 22.6799 22.1899 22.7499 21.9999 22.7499Z"/>
</symbol><symbol viewBox="0 0 24 24" id="twitter" xmlns="http://www.w3.org/2000/svg">
    <path d="M20.9727 6.7174C20.5083 7.33692 19.9469 7.87733 19.3102 8.31776C19.3102 8.47959 19.3102 8.64142 19.3102 8.81225C19.3153 11.7511 18.1414 14.5691 16.0517 16.6345C13.9619 18.6999 11.1311 19.8399 8.19393 19.7989C6.49587 19.8046 4.81955 19.4169 3.2963 18.6661C3.21416 18.6302 3.16119 18.549 3.1615 18.4593V18.3604C3.1615 18.2313 3.26611 18.1267 3.39515 18.1267C5.0643 18.0716 6.6739 17.4929 7.99622 16.4724C6.48541 16.4419 5.12607 15.5469 4.50048 14.1707C4.46889 14.0956 4.47872 14.0093 4.52645 13.9432C4.57417 13.8771 4.65288 13.8407 4.73413 13.8471C5.1933 13.8932 5.65706 13.8505 6.10008 13.7212C4.43227 13.375 3.17909 11.9904 2.99974 10.2957C2.99337 10.2144 3.0298 10.1357 3.09588 10.0879C3.16195 10.0402 3.24812 10.0303 3.32326 10.062C3.77082 10.2595 4.25397 10.3635 4.74312 10.3676C3.28172 9.40846 2.65049 7.58405 3.20643 5.92622C3.26382 5.76513 3.40169 5.64612 3.56938 5.61294C3.73706 5.57975 3.90984 5.63728 4.0242 5.76439C5.99627 7.86325 8.70592 9.11396 11.5818 9.25279C11.5082 8.95885 11.472 8.65676 11.474 8.35372C11.5009 6.76472 12.4841 5.34921 13.9633 4.76987C15.4424 4.19054 17.1248 4.56203 18.2229 5.71044C18.9713 5.56785 19.6949 5.31645 20.3706 4.96421C20.4201 4.93331 20.4829 4.93331 20.5324 4.96421C20.5633 5.01373 20.5633 5.07652 20.5324 5.12604C20.2051 5.87552 19.6522 6.50412 18.9508 6.92419C19.565 6.85296 20.1684 6.70807 20.7481 6.49264C20.7969 6.45942 20.861 6.45942 20.9098 6.49264C20.9507 6.51134 20.9813 6.54711 20.9934 6.59042C21.0055 6.63373 20.9979 6.68018 20.9727 6.7174Z"/>
</symbol></svg>