<?xml version="1.0" encoding="utf-8"?><svg viewBox="0 0 48 48" xmlns="http://www.w3.org/2000/svg" xmlns:xlink="http://www.w3.org/1999/xlink"><style>:root>svg{display:none}:root>svg:target{display:block}</style><svg fill="none" viewBox="0 0 24 24" id="arrow-down" xmlns="http://www.w3.org/2000/svg">
    <path fill-rule="evenodd" clip-rule="evenodd" d="M12.398 15.663a.562.562 0 0 1-.796 0L5.867 9.928a.562.562 0 0 1 0-.795l.266-.266c.22-.22.575-.22.795 0L12 13.94l5.072-5.072c.22-.22.576-.22.795 0l.266.266c.22.22.22.575 0 .795l-5.735 5.735Z" fill="#000"/>
</svg><svg fill="none" viewBox="0 0 48 48" id="chart" xmlns="http://www.w3.org/2000/svg">
    <path d="M24 45.5C12.14 45.5 2.5 35.86 2.5 24c0-4.72 1.5-9.2 4.34-12.96.5-.66 1.44-.78 2.1-.28.66.5.8 1.44.3 2.1A18.321 18.321 0 0 0 5.5 24c0 10.2 8.3 18.5 18.5 18.5S42.5 34.2 42.5 24 34.2 5.5 24 5.5c-.82 0-1.5-.68-1.5-1.5s.68-1.5 1.5-1.5c11.86 0 21.5 9.64 21.5 21.5S35.86 45.5 24 45.5Z" fill="#292D32"/>
    <path d="M24 39.5c-8.54 0-15.5-6.96-15.5-15.5 0-.82.68-1.5 1.5-1.5s1.5.68 1.5 1.5c0 6.9 5.6 12.5 12.5 12.5S36.5 30.9 36.5 24 30.9 11.5 24 11.5c-.82 0-1.5-.68-1.5-1.5s.68-1.5 1.5-1.5c8.54 0 15.5 6.96 15.5 15.5S32.54 39.5 24 39.5Z" fill="#292D32"/>
    <path d="M24 33.5c-.82 0-1.5-.68-1.5-1.5s.68-1.5 1.5-1.5c3.58 0 6.5-2.92 6.5-6.5s-2.92-6.5-6.5-6.5c-.82 0-1.5-.68-1.5-1.5s.68-1.5 1.5-1.5c5.24 0 9.5 4.26 9.5 9.5s-4.26 9.5-9.5 9.5Z" fill="#292D32"/>
</svg><svg fill="none" viewBox="0 0 48 48" id="emoji-happy" xmlns="http://www.w3.org/2000/svg">
    <path d="M30 45.5H18C7.14 45.5 2.5 40.86 2.5 30V18C2.5 7.14 7.14 2.5 18 2.5h12c10.86 0 15.5 4.64 15.5 15.5v12c0 10.86-4.64 15.5-15.5 15.5Zm-12-40C8.78 5.5 5.5 8.78 5.5 18v12c0 9.22 3.28 12.5 12.5 12.5h12c9.22 0 12.5-3.28 12.5-12.5V18c0-9.22-3.28-12.5-12.5-12.5H18Z" fill="#292D32"/>
    <path d="M31 21c-2.48 0-4.5-2.02-4.5-4.5S28.52 12 31 12s4.5 2.02 4.5 4.5S33.48 21 31 21Zm0-6c-.82 0-1.5.68-1.5 1.5S30.18 18 31 18s1.5-.68 1.5-1.5S31.82 15 31 15ZM17 21c-2.48 0-4.5-2.02-4.5-4.5S14.52 12 17 12s4.5 2.02 4.5 4.5S19.48 21 17 21Zm0-6c-.82 0-1.5.68-1.5 1.5S16.18 18 17 18s1.5-.68 1.5-1.5S17.82 15 17 15ZM24 38.9c-5.8 0-10.5-4.72-10.5-10.5 0-1.82 1.48-3.3 3.3-3.3h14.4c1.82 0 3.3 1.48 3.3 3.3 0 5.78-4.7 10.5-10.5 10.5Zm-7.2-10.8c-.16 0-.3.14-.3.3 0 4.14 3.36 7.5 7.5 7.5 4.14 0 7.5-3.36 7.5-7.5 0-.16-.14-.3-.3-.3H16.8Z" fill="#292D32"/>
</svg><svg fill="none" viewBox="0 0 24 24" id="facebook" xmlns="http://www.w3.org/2000/svg">
    <path d="M16.5 6h-3a1 1 0 0 0-1 1v3h4a.35.35 0 0 1 .34.46l-.74 2.2a.5.5 0 0 1-.47.34H12.5v7.5a.5.5 0 0 1-.5.5H9.5a.5.5 0 0 1-.5-.5V13H7.5a.5.5 0 0 1-.5-.5v-2a.5.5 0 0 1 .5-.5H9V7a4 4 0 0 1 4-4h3.5a.5.5 0 0 1 .5.5v2a.5.5 0 0 1-.5.5Z" fill="#000"/>
</svg><svg fill="none" viewBox="0 0 48 48" id="heart-circle" xmlns="http://www.w3.org/2000/svg">
    <path d="M24 45.5C12.14 45.5 2.5 35.86 2.5 24S12.14 2.5 24 2.5 45.5 12.14 45.5 24 35.86 45.5 24 45.5Zm0-40C13.8 5.5 5.5 13.8 5.5 24S13.8 42.5 24 42.5 42.5 34.2 42.5 24 34.2 5.5 24 5.5Z" fill="#292D32"/>
    <path d="M24 36.5c-.42 0-.82-.06-1.16-.18-4.3-1.46-11.12-6.7-11.12-14.5 0-4.16 3.36-7.54 7.5-7.54 1.8 0 3.46.62 4.8 1.74a7.435 7.435 0 0 1 4.78-1.74c4.14 0 7.5 3.38 7.5 7.54 0 7.78-6.82 13.02-11.14 14.5-.34.12-.76.18-1.16.18Zm-4.8-19.2c-2.48 0-4.5 2.04-4.5 4.54 0 6.98 6.74 10.86 9.1 11.66.08.02.28.02.36 0 2.36-.8 9.1-4.68 9.1-11.66 0-2.5-2.02-4.54-4.5-4.54-1.4 0-2.74.68-3.58 1.82-.56.76-1.84.76-2.4 0a4.362 4.362 0 0 0-3.58-1.82Z" fill="#292D32"/>
</svg><svg fill="none" viewBox="0 0 24 24" id="instagram" xmlns="http://www.w3.org/2000/svg">
    <path fill-rule="evenodd" clip-rule="evenodd" d="M16 3H8a5 5 0 0 0-5 5v8a5 5 0 0 0 5 5h8a5 5 0 0 0 5-5V8a5 5 0 0 0-5-5Zm3.25 13A3.26 3.26 0 0 1 16 19.25H8A3.26 3.26 0 0 1 4.75 16V8A3.26 3.26 0 0 1 8 4.75h8A3.26 3.26 0 0 1 19.25 8v8Zm-2.5-7.75a1 1 0 1 0 0-2 1 1 0 0 0 0 2ZM12 7.5a4.5 4.5 0 1 0 4.5 4.5A4.49 4.49 0 0 0 12 7.5ZM9.25 12a2.75 2.75 0 1 0 5.5 0 2.75 2.75 0 0 0-5.5 0Z" fill="#000"/>
</svg><svg fill="none" viewBox="0 0 24 24" id="linkedIn" xmlns="http://www.w3.org/2000/svg">
    <path fill-rule="evenodd" clip-rule="evenodd" d="M5 3h14a2 2 0 0 1 2 2v14a2 2 0 0 1-2 2H5a2 2 0 0 1-2-2V5a2 2 0 0 1 2-2Zm3 15a.5.5 0 0 0 .5-.5v-7A.5.5 0 0 0 8 10H6.5a.5.5 0 0 0-.5.5v7a.5.5 0 0 0 .5.5H8Zm-.75-9a1.5 1.5 0 1 1 0-3 1.5 1.5 0 0 1 0 3Zm10.25 9a.5.5 0 0 0 .5-.5v-4.6a3.1 3.1 0 0 0-2.72-3.14 3 3 0 0 0-2.78 1.34v-.6a.5.5 0 0 0-.5-.5h-1.5a.5.5 0 0 0-.5.5v7a.5.5 0 0 0 .5.5H12a.5.5 0 0 0 .5-.5v-3.75a1.5 1.5 0 0 1 3 0v3.75a.5.5 0 0 0 .5.5h1.5Z" fill="#000"/>
</svg><svg fill="none" viewBox="0 0 48 48" id="moon" xmlns="http://www.w3.org/2000/svg">
    <path d="M24.92 45.5c-.34 0-.68 0-1.02-.02-11.2-.5-20.56-9.52-21.34-20.52C1.88 15.52 7.34 6.7 16.14 3c2.5-1.04 3.82-.24 4.38.34.56.56 1.34 1.86.3 4.24-.92 2.12-1.38 4.38-1.36 6.7.04 8.86 7.4 16.38 16.38 16.74 1.3.06 2.58-.04 3.82-.26 2.64-.48 3.74.58 4.16 1.26.42.68.9 2.14-.7 4.3-4.24 5.8-10.98 9.18-18.2 9.18ZM5.54 24.74c.68 9.52 8.8 17.32 18.48 17.74 6.58.32 12.82-2.68 16.66-7.92.3-.42.44-.72.5-.88-.18-.02-.5-.04-1 .06-1.46.26-2.98.36-4.48.3-10.56-.42-19.2-9.28-19.26-19.72 0-2.76.54-5.42 1.64-7.92.2-.44.24-.74.26-.9-.18 0-.5.04-1.02.26C9.7 8.96 4.98 16.6 5.54 24.74Z" fill="#292D32"/>
</svg><svg fill="none" viewBox="0 0 24 24" id="search-normal" xmlns="http://www.w3.org/2000/svg">
    <path d="M11.5 21.75c-5.65 0-10.25-4.6-10.25-10.25S5.85 1.25 11.5 1.25s10.25 4.6 10.25 10.25-4.6 10.25-10.25 10.25Zm0-19c-4.83 0-8.75 3.93-8.75 8.75s3.92 8.75 8.75 8.75 8.75-3.93 8.75-8.75-3.92-8.75-8.75-8.75ZM22 22.75c-.19 0-.38-.07-.53-.22l-2-2a.754.754 0 0 1 0-1.06c.29-.29.77-.29 1.06 0l2 2c.29.29.29.77 0 1.06-.15.15-.34.22-.53.22Z" fill="#676767"/>
</svg><svg fill="none" viewBox="0 0 24 24" id="twitter" xmlns="http://www.w3.org/2000/svg">
    <path d="M20.973 6.717a7.19 7.19 0 0 1-1.663 1.6v.495a10.972 10.972 0 0 1-3.258 7.822A10.96 10.96 0 0 1 8.194 19.8a10.994 10.994 0 0 1-4.898-1.133.225.225 0 0 1-.134-.207v-.099c0-.129.104-.233.233-.233a7.96 7.96 0 0 0 4.601-1.655A3.927 3.927 0 0 1 4.5 14.171a.234.234 0 0 1 .234-.324c.46.046.923.004 1.366-.126A3.92 3.92 0 0 1 3 10.296a.234.234 0 0 1 .323-.234c.448.197.931.302 1.42.306a3.849 3.849 0 0 1-1.537-4.442.485.485 0 0 1 .818-.162 11.105 11.105 0 0 0 7.558 3.489 3.604 3.604 0 0 1-.108-.9 3.917 3.917 0 0 1 6.749-2.643 7.807 7.807 0 0 0 2.148-.746c.05-.03.112-.03.161 0 .031.05.031.113 0 .162a3.928 3.928 0 0 1-1.581 1.798 7.709 7.709 0 0 0 1.797-.431.144.144 0 0 1 .162 0 .153.153 0 0 1 .063.224Z" fill="#000"/>
</svg></svg>